<svg width="32" height="32" viewBox="0 0 32 32" fill="none" xmlns="http://www.w3.org/2000/svg">
<path d="M16 1C24.2843 1 31 7.71573 31 16C31 24.2843 24.2843 31 16 31C7.71573 31 1 24.2843 0.999999 16C0.999999 7.71573 7.71573 1 16 1Z" stroke="#D2D2D2" stroke-width="2"/>
<path d="M10.2659 20.6235C10.2406 20.6568 10.2151 20.6894 10.1895 20.7211C9.55789 21.5064 9.26084 22.4133 9.21368 23.4344L10.2659 20.6235ZM10.2659 20.6235C10.8944 21.3896 11.6441 22.0345 12.5756 22.4603L10.2659 20.6235ZM14.5018 24.5648C14.0864 23.6036 13.5152 22.8903 12.5758 22.4604L14.5018 24.5648ZM14.5018 24.5648C15.2458 26.2883 16.4803 27.4963 18.0399 28.3244C17.8358 28.3592 17.6327 28.39 17.4264 28.4144L14.5018 24.5648ZM12.3113 27.9565C13.9847 28.4607 15.6929 28.6187 17.4264 28.4144L12.3113 27.9565ZM12.3113 27.9565C11.2498 27.6365 10.4588 27.0659 9.94264 26.3141C9.42564 25.5609 9.16075 24.5911 9.21367 23.4346L12.3113 27.9565Z" fill="#D2D2D2" stroke="#D2D2D2"/>
<path d="M23.3859 15.6245L23.3858 15.6235C23.2674 14.7405 23.5345 13.9572 24.0975 13.2453C25.3202 11.701 25.845 9.96579 25.799 8.0797C27.0955 9.63111 27.9675 11.4029 28.4076 13.4037L28.4076 13.4037C28.7805 15.0991 28.0104 16.8171 26.3684 17.8197C25.2877 18.4789 24.1585 18.7727 22.9257 18.5736C23.1875 17.8816 23.3479 17.1795 23.3851 16.4424L22.8857 16.4172L23.385 16.4432C23.3867 16.4114 23.3887 16.3773 23.3909 16.3412C23.4032 16.1392 23.4192 15.8765 23.3859 15.6245Z" fill="#D2D2D2" stroke="#D2D2D2"/>
<path d="M21.7965 11.2903C21.7732 11.3192 21.7501 11.3486 21.7273 11.3783C21.7136 11.3649 21.6999 11.3515 21.6861 11.338C21.3006 10.9603 20.9012 10.5691 20.485 10.2094C20.1369 9.90851 19.7294 9.65824 19.3116 9.47653C18.5024 9.12353 17.962 8.52278 17.634 7.72787L17.6339 7.72753C16.8671 5.87336 15.6073 4.54547 13.937 3.66423C14.4023 3.58944 14.874 3.54239 15.3514 3.51735C16.8188 3.44148 18.2582 3.61445 19.664 4.0356L19.664 4.03561C20.7295 4.35468 21.5229 4.92248 22.0413 5.67149C22.5606 6.42174 22.8283 7.38917 22.7795 8.54689C22.7357 9.5785 22.4348 10.4949 21.7965 11.2903Z" fill="#D2D2D2" stroke="#D2D2D2"/>
<path d="M12.2873 10.2649C12.4133 10.1684 12.5584 10.0947 12.7026 10.0213C12.7384 10.0031 12.7742 9.98491 12.8096 9.96641C13.4991 9.60667 14.2286 9.37928 15.0164 9.26421C15.0113 9.25373 15.0062 9.24322 15.0011 9.23269C14.9315 9.08892 14.8595 8.94027 14.8044 8.7998L14.8043 8.79937C14.8033 8.79678 14.8022 8.79418 14.8012 8.79159M12.2873 10.2649L14.8012 8.79159M12.2873 10.2649C11.3929 10.9515 10.3636 11.0755 9.29029 10.9417L12.2873 10.2649ZM14.8012 8.79159C14.3002 7.51678 13.3676 6.65289 12.083 6.0929L12.0829 6.09287C11.2526 5.73075 10.4687 5.59866 9.73478 5.68632C9.00313 5.77372 8.28905 6.08324 7.60077 6.65514C6.13609 7.87237 5.05517 9.39527 4.3083 11.1508L4.3082 11.151C4.24653 11.2958 4.1895 11.4406 4.13506 11.5864C5.68756 10.6382 7.41381 10.203 9.35238 10.4456C10.3486 10.5697 11.2289 10.4471 11.9829 9.86832L11.9833 9.86799C12.1502 9.74018 12.349 9.63959 12.4938 9.56629C12.5246 9.55072 12.5529 9.53638 12.578 9.52328L12.5783 9.52312C13.2798 9.15712 14.0169 8.92007 14.8012 8.79159Z" fill="#D2D2D2" stroke="#D2D2D2"/>
<path d="M9.06833 13.4251C9.06341 13.4244 9.05851 13.4236 9.05364 13.4228L9.05244 13.4227C7.84798 13.2308 6.73713 13.4947 5.70457 14.1381L9.06833 13.4251ZM9.06833 13.4251C8.93086 13.9006 8.78991 14.3885 8.69149 14.8727C8.59623 15.3402 8.55527 15.8499 8.61083 16.3447L8.61089 16.3452C8.71578 17.2717 8.43203 18.075 7.84844 18.8207L9.06833 13.4251ZM6.22068 23.951C4.89628 22.3894 3.99585 20.616 3.60064 18.6132C3.41279 17.6611 3.48919 16.8369 3.81834 16.1168C4.14866 15.3941 4.7546 14.7302 5.70453 14.1381L6.22068 23.951ZM6.22068 23.951C6.21598 23.5283 6.22083 23.0994 6.2571 22.6815L6.22068 23.951ZM7.84832 18.8208C6.96242 19.9518 6.38283 21.2313 6.2571 22.6815L7.84832 18.8208Z" fill="#D2D2D2" stroke="#D2D2D2"/>
<path d="M18.4121 22.8916L18.4118 22.8917C18.0125 23.027 17.581 23.1213 17.1779 23.2071C17.5304 24.0203 18.0293 24.7203 18.7628 25.2469C19.7379 25.946 20.7947 26.3436 21.8273 26.3329C22.8472 26.3224 23.8949 25.9135 24.8743 24.9039L24.8744 24.9037C25.5098 24.2493 26.0953 23.5321 26.6285 22.7851C27.1499 22.0541 27.5561 21.2612 27.8755 20.4035C26.3161 21.3606 24.5811 21.7972 22.6342 21.5527C21.6524 21.4296 20.7765 21.5745 19.9831 22.136L18.4121 22.8916ZM18.4121 22.8916C18.9337 22.7144 19.4966 22.4807 19.9829 22.1362L18.4121 22.8916ZM28.5155 19.3491L28.5154 19.3489L28.5155 19.3491Z" fill="#D2D2D2" stroke="#D2D2D2"/>
</svg>
