<svg width="10" height="32" viewBox="0 0 10 32" fill="none" xmlns="http://www.w3.org/2000/svg">
<path d="M5.45607e-05 5.04461C-0.00244921 3.44739 0.0812216 1.85123 0.25064 0.263272C3.38503 -0.0877572 6.548 -0.0877572 9.68239 0.263272C10.0286 3.44117 10.0286 6.64806 9.68239 9.82595C6.54734 10.1647 3.38569 10.1647 0.25064 9.82595C0.0812216 8.23799 -0.00244921 6.64183 5.45607e-05 5.04461Z" fill="#D2D2D2"/>
<path d="M5.45607e-05 26.9645C-0.00244921 25.3673 0.0812216 23.7712 0.25064 22.1832C3.38503 21.8322 6.548 21.8322 9.68239 22.1832C10.0286 25.3611 10.0286 28.568 9.68239 31.7459C6.54734 32.0846 3.38569 32.0846 0.25064 31.7459C0.0812216 30.1579 -0.00244921 28.5618 5.45607e-05 26.9645Z" fill="#D2D2D2"/>
</svg>
