<svg width="34" height="32" viewBox="0 0 34 32" fill="none" xmlns="http://www.w3.org/2000/svg">
<g clip-path="url(#clip0_9979_10847)">
<path d="M33.9999 25.9347C33.9567 26.3163 33.881 26.6979 33.8738 27.0796C33.8558 27.9206 33.899 28.7653 33.8558 29.6064C33.8342 30.0473 33.8558 30.5104 33.5858 30.9253C33.1969 31.5181 32.6531 31.8071 31.9906 31.8738C31.4252 31.9294 30.8491 31.9738 30.2801 31.9368C29.5959 31.8923 28.8866 31.8442 28.3752 31.2551C28.0799 30.9142 27.8855 30.54 27.8819 30.0584C27.8747 28.9691 27.8279 27.8798 27.8207 26.7943C27.7919 22.9967 27.7667 19.1953 27.7559 15.3977C27.7559 14.2862 27.7703 13.1747 27.8279 12.0632C27.8603 11.4408 27.8639 10.7924 28.3644 10.2922C28.7605 9.89581 29.2322 9.70686 29.758 9.68092C30.4205 9.64758 31.0867 9.65869 31.7493 9.66981C32.7395 9.68463 33.5534 10.2218 33.7586 11.0444C33.8558 11.4408 33.8558 11.8706 33.863 12.2818C33.8774 13.0451 33.8522 13.8083 33.8702 14.5715C33.881 14.942 33.9531 15.3125 33.9963 15.683V18.6211C33.9747 18.9619 33.9531 19.3028 33.9315 19.6473C33.9315 20.5884 33.9279 21.5332 33.9315 22.4743C33.9315 22.5817 33.9747 22.6854 33.9963 22.7929V25.9384L33.9999 25.9347Z" fill="#D2D2D2"/>
<path d="M34 22.7896C33.9784 22.6821 33.9352 22.5784 33.9352 22.471C33.9316 21.5299 33.9352 20.5851 33.9352 19.644C33.9568 19.644 33.9784 19.644 34 19.644V22.7896Z" fill="#D2D2D2"/>
<path d="M34.0004 19.644C33.9788 19.644 33.9572 19.644 33.9355 19.644C33.9572 19.3031 33.9788 18.9622 34.0004 18.6177V19.644Z" fill="#D2D2D2"/>
<path d="M11.1985 10.0183C10.8276 10.437 10.4603 10.8557 10.0858 11.2669C9.59611 11.8041 9.09558 12.3302 8.60225 12.8675C7.6228 13.9382 6.64335 15.0127 5.6711 16.0945C5.62428 16.1464 5.60988 16.2649 5.62788 16.339C5.98798 17.8729 5.03733 19.3512 3.53934 19.655C2.14218 19.9403 0.78103 18.977 0.539767 17.5024C0.294904 16.0278 1.07271 14.8015 2.49147 14.4013C2.81196 14.3124 3.17565 14.3939 3.51774 14.3717C3.64377 14.3643 3.80221 14.3161 3.88503 14.2235C4.73845 13.2935 5.57747 12.3525 6.42369 11.4188C6.78378 11.0187 7.14748 10.6259 7.51117 10.2295C8.22056 9.45517 8.92994 8.68083 9.63212 7.89908C9.70414 7.82127 9.75095 7.68419 9.74735 7.57674C9.69694 6.45042 10.5972 5.1685 11.7855 4.96843C13.2114 4.73131 14.5114 5.44267 14.8643 6.96542C14.9507 7.34333 15.2316 7.42484 15.4692 7.57674C17.0104 8.56597 18.5552 9.5478 20.118 10.5444C20.8202 10.022 21.6124 9.97017 22.4442 10.2036C22.5307 10.2295 22.6783 10.1962 22.7359 10.1332C23.1644 9.66636 23.5821 9.18471 23.9962 8.70306C24.3995 8.22882 24.7956 7.75088 25.199 7.27293C25.7931 6.56898 26.3909 5.86133 26.9886 5.16109C27.3271 4.76095 27.6332 4.32376 28.0221 3.9829C28.3678 3.67909 28.3966 3.36417 28.2958 2.96773C28.1553 2.4194 28.321 1.91922 28.5514 1.43757C28.8791 0.741035 29.4048 0.248271 30.1394 0.0778412C31.7022 -0.281543 33.175 0.58913 33.4163 2.21933C33.5531 3.14557 33.301 3.92362 32.6817 4.55717C32.1668 5.08328 31.5186 5.3945 30.766 5.27965C30.3555 5.21666 30.1358 5.44637 29.909 5.71313C29.4697 6.23183 29.0339 6.75053 28.5946 7.26552C28.0149 7.95465 27.4351 8.64378 26.8482 9.3292C26.4593 9.78862 26.056 10.2369 25.6635 10.6926C25.1845 11.2484 24.7092 11.8078 24.2411 12.3747C24.1835 12.4451 24.1655 12.5822 24.1763 12.6859C24.2951 13.9641 23.3265 15.1497 22.0733 15.3794C20.6654 15.6351 19.3979 14.8274 19.0846 13.3269C18.9765 12.8193 18.6453 12.6822 18.332 12.4784C16.9744 11.593 15.6025 10.7334 14.2377 9.86272C14.0829 9.76269 13.9496 9.70341 13.7624 9.81085C12.7865 10.3814 12.2716 10.4185 11.1985 10.0146V10.0183Z" fill="#D2D2D2"/>
<path d="M12.1282 31.9998C11.6853 31.9257 11.1488 31.8553 10.6267 31.7404C9.89566 31.5774 9.34112 30.6215 9.34832 29.9361C9.35913 28.7912 9.30871 27.6464 9.29071 26.5016C9.2655 24.801 9.23309 23.1004 9.22949 21.3998C9.22949 20.4143 9.2583 19.4287 9.29431 18.4432C9.31231 17.9319 9.30511 17.3984 9.44195 16.913C9.74443 15.8534 10.3926 15.5533 11.3108 15.4903C11.9482 15.4459 12.5964 15.4385 13.2337 15.4866C13.9287 15.5348 14.6273 15.6608 15.0234 16.361C15.1602 16.6055 15.2899 16.8797 15.3259 17.1502C15.3907 17.6281 15.3943 18.1172 15.4015 18.6025C15.4303 20.9441 15.4591 23.2819 15.4663 25.6235C15.4699 26.6535 15.4375 27.6872 15.4015 28.7171C15.3799 29.3099 15.3583 29.9064 15.2647 30.4918C15.1566 31.1476 14.4184 31.7701 13.7307 31.8256C13.2337 31.8664 12.7368 31.9368 12.1354 32.0072L12.1282 31.9998Z" fill="#D2D2D2"/>
<path d="M21.5011 31.9815C21.0402 31.9296 20.5144 31.9111 20.0067 31.8036C19.4306 31.6814 18.7752 31.0775 18.6672 30.4031C18.5771 29.84 18.5483 29.2657 18.5267 28.6951C18.4907 27.7207 18.4619 26.7463 18.4619 25.7719C18.4619 24.842 18.4907 23.9157 18.5267 22.9858C18.5447 22.4967 18.5807 22.0039 18.6564 21.5186C18.8184 20.4775 19.5206 20.0403 20.446 19.918C21.2994 19.8032 22.1457 19.8439 22.9883 19.9884C23.9677 20.1551 24.5115 20.7405 24.5619 21.7446C24.6375 23.3266 24.7167 24.9086 24.7383 26.4907C24.7527 27.5429 24.6879 28.5951 24.6267 29.6436C24.5907 30.2549 24.5331 30.8626 24.029 31.322C23.6437 31.6703 23.1971 31.8185 22.711 31.8814C22.3329 31.9296 21.9512 31.9481 21.5011 31.9852V31.9815Z" fill="#D2D2D2"/>
<path d="M2.94928 31.9999C2.48116 31.9221 1.92302 31.8851 1.39728 31.7332C0.648286 31.5183 0.183765 30.9736 0.129751 30.1585C0.0577328 29.1137 0.0109207 28.0652 0.000117869 27.0167C-0.00348306 26.5906 0.0757375 26.1497 0.194568 25.7385C0.428629 24.9197 0.986773 24.4714 1.81499 24.3602C2.78724 24.2305 3.75589 24.2676 4.72094 24.4269C5.27188 24.5158 5.91645 25.1531 6.02808 25.7681C6.1037 26.1942 6.13251 26.6314 6.16491 27.0649C6.19732 27.5021 6.24774 27.9429 6.22613 28.3801C6.19012 29.0841 6.15411 29.7954 6.02088 30.4809C5.89844 31.0922 5.30429 31.6665 4.59851 31.7961C4.08357 31.8925 3.56144 31.9258 2.95288 31.9962L2.94928 31.9999Z" fill="#D2D2D2"/>
</g>
<defs>
<clipPath id="clip0_9979_10847">
<rect width="34" height="32" fill="white"/>
</clipPath>
</defs>
</svg>
