<svg width="211" height="294" viewBox="0 0 211 294" fill="none" xmlns="http://www.w3.org/2000/svg">
<g opacity="0.3">
<path d="M165.834 91.3986L177.439 95.5933L188.637 100.758L199.312 106.884L209.344 113.967L218.609 122.016L226.717 130.757L233.362 139.856L238.533 149.227L242.208 158.779L244.354 168.412L244.932 178.017L243.899 187.479L241.201 196.672L236.785 205.458L230.593 213.689L222.57 221.2L212.664 227.817L201.219 233.185L188.736 237.053L175.426 239.402L161.518 240.226L147.251 239.532L132.876 237.34L118.65 233.688L104.831 228.627L91.6754 222.221L79.432 214.551L68.34 205.707L58.6227 195.792L50.7283 185.259L44.9207 174.607L41.1223 164.005L39.2455 153.604L39.1966 143.545L40.881 133.952L44.207 124.935L49.0881 116.595L55.4447 109.024L63.2052 102.309L72.3061 96.5303L82.6938 91.7644L93.9577 88.1941L105.63 85.8986L117.583 84.807L129.696 84.8582L141.851 86.0009L153.934 88.1925L165.834 91.3986Z" fill="#5FA3C9" fill-opacity="0.62" stroke="url(#paint0_linear_3650_13412)" stroke-width="1.13106"/>
<g filter="url(#filter0_b_3650_13412)">
<path fill-rule="evenodd" clip-rule="evenodd" d="M45.1572 175.213L51.0856 186.208L59.0729 197.087L68.8482 207.342L79.9617 216.51L92.1916 224.488L105.303 231.184L119.051 236.516L133.186 240.417L147.454 242.833L161.607 243.722L175.4 243.059L188.597 240.83L200.974 237.035L212.323 231.688L222.146 225.032L230.103 217.42L236.235 209.032L239.81 201.869L243.449 194.574L247.157 187.144L250.933 179.574L244.735 187.945L236.637 195.52L226.589 202.118L214.936 207.384L202.189 211.076L188.565 213.182L174.296 213.701L159.629 212.649L144.819 210.055L130.129 205.961L115.823 200.426L102.164 193.524L89.4078 185.339L77.8022 175.969L67.5788 165.524L59.2083 154.477L52.9753 143.345L48.8082 132.3L46.6243 121.498L46.3347 111.085L47.8472 101.189L45.9668 109.436L44.1208 117.531L42.3082 125.48L40.5282 133.286L38.9912 143.172L39.192 153.545L41.219 164.273L45.1572 175.213Z" fill="url(#paint1_linear_3650_13412)" fill-opacity="0.6"/>
</g>
<g filter="url(#filter1_b_3650_13412)">
<path fill-rule="evenodd" clip-rule="evenodd" d="M198.984 70.2993L187.365 64.7195L175.352 60.1292L163.06 56.5492L150.603 54.0087L138.095 52.5455L125.654 52.2065L113.399 53.048L101.456 55.1367L89.956 58.5503L79.378 63.2205L70.1387 68.972L62.2948 75.7288L55.913 83.4102L51.0691 91.9289L47.8466 101.189L46.3342 111.085L46.6238 121.498L48.8076 132.3L52.9748 143.345L59.2078 154.477L67.5782 165.524L77.8016 175.969L89.4072 185.338L102.163 193.524L115.822 200.426L130.129 205.961L144.819 210.055L159.629 212.649L174.296 213.701L188.564 213.182L202.188 211.076L214.935 207.384L226.588 202.118L236.637 195.52L244.735 187.945L250.933 179.574L255.287 170.58L257.856 161.122L258.699 151.349L257.873 141.395L255.43 131.384L251.417 121.429L245.87 111.634L238.817 102.093L230.274 92.8942L220.564 84.3861L210.091 76.8561L198.984 70.2993Z" fill="url(#paint2_linear_3650_13412)" fill-opacity="0.2"/>
<path d="M175.172 60.6657L187.141 65.2394L198.717 70.7986L209.782 77.3302L220.212 84.8295L229.88 93.3004L238.381 102.455L245.394 111.943L250.906 121.675L254.891 131.557L257.313 141.486L258.131 151.348L257.297 161.023L254.755 170.381L250.447 179.28L244.311 187.567L236.286 195.074L226.315 201.621L214.739 206.852L202.066 210.523L188.51 212.618L174.305 213.135L159.698 212.087L144.944 209.502L130.307 205.423L116.052 199.909L102.444 193.032L89.7385 184.879L78.1826 175.55L68.0073 165.154L59.6821 154.167L53.4889 143.106L49.3529 132.143L47.1878 121.434L46.901 111.12L48.3978 101.326L51.5863 92.1635L56.3799 83.7332L62.6996 76.1265L70.4747 69.429L79.6429 63.7217L90.1514 59.0822L101.585 55.6882L113.467 53.6102L125.666 52.7725L138.055 53.1101L150.514 54.5676L162.924 57.0987L175.172 60.6657Z" stroke="url(#paint3_linear_3650_13412)" stroke-width="1.13106"/>
</g>
<g filter="url(#filter2_f_3650_13412)">
<path d="M111.654 90.5328C115.017 88.6056 119.959 89.2817 122.816 92.0074L127.792 96.8442C141.815 92.0393 155.318 97.5644 161.699 103.347C164.659 105.997 164.467 109.758 161.26 111.735C161.123 111.844 160.974 111.941 160.815 112.027C157.85 113.773 153.011 113.043 150.226 110.555C148.3 108.876 141.246 103.931 131.666 109.579C122.44 115.023 126.639 120.818 128.867 123.067C130.839 124.769 137.095 128.739 146.379 123.241C162.608 113.657 179.756 120.5 187.345 127.461L187.597 127.703L187.86 128.002C191.217 131.899 192.941 136.383 192.79 140.809C192.638 145.235 190.638 149.355 187.053 152.569L193 158.173C195.857 160.876 195.519 164.645 192.257 166.564C188.996 168.482 184.031 167.85 181.173 165.147L175.226 159.544C161.19 164.449 148.276 158.714 142.884 154.362C139.74 151.865 139.606 148.084 142.604 145.911C142.764 145.803 142.924 145.695 143.095 145.598C146.198 143.765 150.719 144.161 153.73 146.564C155.529 147.925 162.309 152.1 171.319 146.774C180.203 141.524 176.576 135.8 175.431 134.32C173.061 132.383 165.913 127.637 156.755 133.038C140.525 142.621 124.114 136.482 117.042 129.996C110.713 123.922 106.36 112.828 116.001 103.741L110.903 98.8445C108.089 96.1649 108.438 92.43 111.654 90.5328Z" fill="url(#paint4_linear_3650_13412)"/>
</g>
<path fill-rule="evenodd" clip-rule="evenodd" d="M111.904 93.7663L111.905 93.7661C110.382 92.3047 109.798 90.5413 110.085 88.9341L108.956 95.1281C108.67 96.7353 109.254 98.4986 110.776 99.96L110.776 99.9602L115.857 104.839L116.996 98.6568L111.904 93.7663Z" fill="url(#paint5_linear_3650_13412)"/>
<path fill-rule="evenodd" clip-rule="evenodd" d="M160.996 112.773L160.996 112.773C160.859 112.882 160.711 112.979 160.552 113.065C157.594 114.808 152.769 114.083 149.994 111.604C148.073 109.931 141.043 105.003 131.486 110.641C127.789 112.826 126.253 115.075 125.878 117.117L127.006 110.923C127.382 108.88 128.917 106.632 132.615 104.447C142.161 98.7979 149.191 103.725 151.122 105.41C153.897 107.889 158.734 108.603 161.68 106.871L162.125 106.579L162.125 106.579C163.509 105.719 164.345 104.512 164.582 103.222L163.456 109.403C163.222 110.698 162.385 111.91 160.996 112.773Z" fill="url(#paint6_linear_3650_13412)" fill-opacity="0.6"/>
<path fill-rule="evenodd" clip-rule="evenodd" d="M116.89 131.029L116.889 131.031C112.651 126.968 109.299 120.641 110.479 114.179L111.606 107.997C110.433 114.449 113.777 120.766 118.007 124.826L118.007 124.825C125.067 131.278 141.429 137.389 157.607 127.834C166.743 122.444 173.868 127.172 176.231 129.102L175.102 135.297C172.739 133.366 165.614 128.638 156.479 134.028C140.298 143.589 123.944 137.489 116.89 131.029ZM177.848 134.849L176.72 141.04C177.211 138.34 175.765 136.131 175.113 135.308L176.241 129.114C176.894 129.937 178.33 132.137 177.848 134.849Z" fill="url(#paint7_linear_3650_13412)" fill-opacity="0.6"/>
<path d="M193.29 137.81L192.161 144.004C191.513 147.553 189.626 150.836 186.68 153.487L187.808 147.293C190.767 144.631 192.652 141.37 193.29 137.81Z" fill="#3971B4"/>
<path fill-rule="evenodd" clip-rule="evenodd" d="M180.82 166.043L181.948 159.849L176.021 154.266L174.893 160.46L180.82 166.043ZM194.481 163.96L195.61 157.766C195.352 159.127 194.48 160.373 193.001 161.255C189.747 163.17 184.796 162.543 181.948 159.849L180.82 166.043C183.668 168.737 188.618 169.364 191.872 167.449C193.362 166.578 194.223 165.321 194.481 163.96Z" fill="url(#paint8_linear_3650_13412)"/>
<path d="M176.021 154.266L174.893 160.46C160.892 165.36 148.018 159.649 142.644 155.312C140.753 153.808 139.961 151.826 140.286 150.029L141.414 143.835C141.078 145.643 141.881 147.614 143.772 149.118C149.147 153.455 162.021 159.166 176.021 154.266Z" fill="url(#paint9_linear_3650_13412)"/>
<g filter="url(#filter3_b_3650_13412)">
<path d="M112.669 85.4667C116.024 83.543 120.951 84.2143 123.799 86.9305L128.758 91.7505C142.744 86.951 156.207 92.4524 162.566 98.2152C165.517 100.855 165.323 104.606 162.124 106.579C161.987 106.687 161.838 106.785 161.679 106.87C158.721 108.613 153.896 107.888 151.121 105.409C149.201 103.736 142.17 98.809 132.614 104.447C123.41 109.88 127.594 115.657 129.815 117.898C131.779 119.594 138.015 123.549 147.277 118.061C163.466 108.495 180.562 115.309 188.126 122.245L188.378 122.486L188.64 122.784C191.985 126.667 193.702 131.138 193.548 135.551C193.394 139.965 191.397 144.074 187.82 147.282L193.747 152.866C196.595 155.559 196.255 159.318 193.002 161.233C189.748 163.148 184.797 162.521 181.949 159.827L176.022 154.243C162.022 159.143 149.148 153.432 143.773 149.095C140.64 146.607 140.509 142.837 143.5 140.669C143.659 140.561 143.819 140.453 143.99 140.356C147.084 138.527 151.592 138.919 154.594 141.314C156.387 142.67 163.145 146.828 172.133 141.512C180.996 136.272 177.382 130.566 176.241 129.092C173.879 127.161 166.754 122.433 157.618 127.823C141.428 137.389 125.066 131.278 118.018 124.814C111.71 118.761 107.377 107.701 116.995 98.6343L111.915 93.7551C109.111 91.0849 109.461 87.3604 112.669 85.4667Z" fill="url(#paint10_linear_3650_13412)" fill-opacity="0.7"/>
</g>
</g>
<defs>
<filter id="filter0_b_3650_13412" x="5.05847" y="67.2572" width="279.807" height="210.397" filterUnits="userSpaceOnUse" color-interpolation-filters="sRGB">
<feFlood flood-opacity="0" result="BackgroundImageFix"/>
<feGaussianBlur in="BackgroundImageFix" stdDeviation="16.9659"/>
<feComposite in2="SourceAlpha" operator="in" result="effect1_backgroundBlur_3650_13412"/>
<feBlend mode="normal" in="SourceGraphic" in2="effect1_backgroundBlur_3650_13412" result="shape"/>
</filter>
<filter id="filter1_b_3650_13412" x="31.6302" y="37.5028" width="241.773" height="190.902" filterUnits="userSpaceOnUse" color-interpolation-filters="sRGB">
<feFlood flood-opacity="0" result="BackgroundImageFix"/>
<feGaussianBlur in="BackgroundImageFix" stdDeviation="7.35188"/>
<feComposite in2="SourceAlpha" operator="in" result="effect1_backgroundBlur_3650_13412"/>
<feBlend mode="normal" in="SourceGraphic" in2="effect1_backgroundBlur_3650_13412" result="shape"/>
</filter>
<filter id="filter2_f_3650_13412" x="78.998" y="59.4331" width="145.943" height="138.24" filterUnits="userSpaceOnUse" color-interpolation-filters="sRGB">
<feFlood flood-opacity="0" result="BackgroundImageFix"/>
<feBlend mode="normal" in="SourceGraphic" in2="BackgroundImageFix" result="shape"/>
<feGaussianBlur stdDeviation="15" result="effect1_foregroundBlur_3650_13412"/>
</filter>
<filter id="filter3_b_3650_13412" x="94.424" y="68.7736" width="116.849" height="109.162" filterUnits="userSpaceOnUse" color-interpolation-filters="sRGB">
<feFlood flood-opacity="0" result="BackgroundImageFix"/>
<feGaussianBlur in="BackgroundImageFix" stdDeviation="7.79677"/>
<feComposite in2="SourceAlpha" operator="in" result="effect1_backgroundBlur_3650_13412"/>
<feBlend mode="normal" in="SourceGraphic" in2="effect1_backgroundBlur_3650_13412" result="shape"/>
</filter>
<linearGradient id="paint0_linear_3650_13412" x1="116.788" y1="257.505" x2="138.99" y2="163.808" gradientUnits="userSpaceOnUse">
<stop stop-color="white" stop-opacity="0.27"/>
<stop offset="0.688828" stop-color="white" stop-opacity="0"/>
</linearGradient>
<linearGradient id="paint1_linear_3650_13412" x1="59.4067" y1="133.711" x2="235.717" y2="209.715" gradientUnits="userSpaceOnUse">
<stop offset="0.325325" stop-color="#C0DDFF"/>
<stop offset="0.59538" stop-color="#1277C1"/>
<stop offset="0.814274" stop-color="#053174"/>
<stop offset="0.896974" stop-color="#053174"/>
<stop offset="1" stop-color="#0D469B"/>
</linearGradient>
<linearGradient id="paint2_linear_3650_13412" x1="51.9388" y1="211.212" x2="259.467" y2="50.7051" gradientUnits="userSpaceOnUse">
<stop offset="0.89375" stop-color="#4282FF"/>
</linearGradient>
<linearGradient id="paint3_linear_3650_13412" x1="111.255" y1="235.987" x2="221.776" y2="162.614" gradientUnits="userSpaceOnUse">
<stop offset="0.0596223" stop-color="white" stop-opacity="0.45"/>
<stop offset="0.701218" stop-color="white" stop-opacity="0"/>
</linearGradient>
<linearGradient id="paint4_linear_3650_13412" x1="106.608" y1="103.859" x2="213.563" y2="200.835" gradientUnits="userSpaceOnUse">
<stop offset="0.46041" stop-color="#1C5485"/>
<stop offset="1" stop-color="#94B4F2"/>
</linearGradient>
<linearGradient id="paint5_linear_3650_13412" x1="107.51" y1="91.3843" x2="118.196" y2="102.613" gradientUnits="userSpaceOnUse">
<stop stop-color="#94C9FA"/>
<stop offset="1" stop-color="#599CD8"/>
</linearGradient>
<linearGradient id="paint6_linear_3650_13412" x1="133.056" y1="108.791" x2="154.111" y2="123.175" gradientUnits="userSpaceOnUse">
<stop stop-color="white"/>
<stop offset="0.0001" stop-color="#1277C1"/>
<stop offset="0.0002" stop-color="white"/>
</linearGradient>
<linearGradient id="paint7_linear_3650_13412" x1="119.327" y1="114.922" x2="177.039" y2="137.007" gradientUnits="userSpaceOnUse">
<stop offset="0.0486117" stop-color="#8FC1ED"/>
<stop offset="0.372917" stop-color="#1277C1"/>
<stop offset="0.716667" stop-color="#1277C1"/>
<stop offset="1" stop-color="#0D469B"/>
</linearGradient>
<linearGradient id="paint8_linear_3650_13412" x1="178.444" y1="151.96" x2="192.678" y2="166.917" gradientUnits="userSpaceOnUse">
<stop stop-color="#69A2D8"/>
<stop offset="1" stop-color="#2860A8"/>
</linearGradient>
<linearGradient id="paint9_linear_3650_13412" x1="145.319" y1="140.119" x2="174.504" y2="170.288" gradientUnits="userSpaceOnUse">
<stop stop-color="#8EC0ED"/>
<stop offset="1" stop-color="#296FB3"/>
</linearGradient>
<linearGradient id="paint10_linear_3650_13412" x1="107.629" y1="98.7576" x2="214.211" y2="195.412" gradientUnits="userSpaceOnUse">
<stop offset="0.46041" stop-color="#CAE5FF"/>
<stop offset="1" stop-color="#94B4F2"/>
</linearGradient>
</defs>
</svg>
