<svg width="92" height="215" viewBox="0 0 92 215" fill="none" xmlns="http://www.w3.org/2000/svg">
<g opacity="0.3">
<path d="M29.4621 112.693L28.2205 121.678L26.2191 130.517L23.4477 139.126L19.8898 147.42L15.5215 155.308L10.4793 162.469L4.95818 168.632L-0.98191 173.777L-7.27786 177.872L-13.8634 180.882L-20.6657 182.763L-27.61 183.464L-34.614 182.932L-41.5893 181.104L-48.4383 177.918L-55.0535 173.306L-61.3165 167.204L-66.9196 159.803L-71.6055 151.426L-75.3276 142.221L-78.0453 132.35L-79.7267 121.989L-80.3486 111.32L-79.8978 100.534L-78.3715 89.8263L-75.7778 79.3899L-72.1357 69.4172L-67.4748 60.094L-61.835 51.5966L-55.4744 44.3166L-48.712 38.5197L-41.6807 34.1748L-34.5044 31.2413L-27.2961 29.6719L-20.1586 29.4169L-13.1844 30.4271L-6.45781 32.6563L-0.0564388 36.0621L5.94741 40.6071L11.486 46.2592L16.4955 52.9922L20.7813 60.5393L24.2142 68.576L26.8255 76.9998L28.6399 85.714L29.6764 94.6263L29.948 103.648L29.4621 112.693Z" fill="#5FA3C9" fill-opacity="0.62" stroke="url(#paint0_linear_3650_13435)" stroke-width="1.13106"/>
<g filter="url(#filter0_b_3650_13435)">
<path fill-rule="evenodd" clip-rule="evenodd" d="M-49.2009 38.6622L-56.2085 44.6131L-62.8177 52.0285L-68.7039 60.6356L-73.6028 70.0396L-77.4742 80.0652L-80.2874 90.5291L-82.0218 101.243L-82.6667 112.015L-82.2214 122.657L-80.6952 132.982L-78.1063 142.81L-74.4815 151.969L-69.8553 160.299L-64.2686 167.65L-57.9729 173.703L-51.2752 178.266L-44.2978 181.397L-38.594 182.873L-32.7852 184.377L-26.8686 185.909L-20.8412 187.469L-27.816 184.288L-34.5092 179.618L-40.7973 173.394L-46.3721 165.811L-50.9813 157.199L-54.5825 147.714L-57.1407 137.521L-58.6286 126.801L-59.0277 115.743L-58.3293 104.541L-56.5349 93.3942L-53.6566 82.5042L-49.7167 72.0683L-44.7481 62.2792L-38.7936 53.3204L-32.1222 45.6035L-25.0625 39.4123L-17.7487 34.7216L-10.307 31.496L-2.85451 29.6934L4.50094 29.2675L-1.72353 29.1761L-7.83421 29.0864L-13.8342 28.9983L-19.7264 28.9119L-27.0781 29.3185L-34.5149 31.0509L-41.928 34.1525L-49.2009 38.6622Z" fill="url(#paint1_linear_3650_13435)" fill-opacity="0.6"/>
</g>
<g filter="url(#filter1_b_3650_13435)">
<path fill-rule="evenodd" clip-rule="evenodd" d="M49.8751 133.343L52.1134 124.125L53.5791 114.774L54.2747 105.377L54.1968 96.02L53.3356 86.7918L51.6751 77.7833L49.1933 69.0896L45.8614 60.8112L41.6437 53.0552L36.6624 46.1549L31.1075 40.384L25.0426 35.7714L18.5358 32.353L11.6617 30.1699L4.50202 29.2675L-2.85336 29.6935L-10.3059 31.496L-17.7476 34.7216L-25.0614 39.4123L-32.1211 45.6035L-38.7925 53.3204L-44.747 62.2792L-49.7156 72.0683L-53.6555 82.5042L-56.5339 93.3942L-58.3282 104.541L-59.0266 115.743L-58.6275 126.802L-57.1396 137.521L-54.5815 147.714L-50.9802 157.2L-46.371 165.811L-40.7962 173.394L-34.5082 179.618L-27.8148 184.288L-20.84 187.469L-13.6988 189.226L-6.49696 189.628L0.668127 188.739L7.70724 186.621L14.5408 183.33L21.0927 178.917L27.295 173.424L33.0838 166.886L38.3988 159.328L43.0373 151.035L46.855 142.343L49.8751 133.343Z" fill="url(#paint2_linear_3650_13435)" fill-opacity="0.2"/>
<path d="M53.0168 114.709L51.5583 124.014L49.3312 133.186L46.327 142.139L42.5304 150.783L37.9194 159.027L32.6394 166.535L26.8943 173.023L20.7458 178.468L14.2587 182.838L7.50184 186.092L0.550976 188.184L-6.51622 189.061L-13.6147 188.665L-20.6535 186.932L-27.5334 183.795L-34.1448 179.182L-40.3669 173.023L-45.8914 165.509L-50.4644 156.965L-54.041 147.544L-56.5837 137.413L-58.0633 126.752L-58.4604 115.75L-57.7655 104.603L-55.98 93.5117L-53.1162 82.6768L-49.1974 72.2969L-44.2577 62.5646L-38.3413 53.6632L-31.7188 46.0029L-24.7204 39.8655L-17.4807 35.2223L-10.1256 32.0343L-2.76986 30.2551L4.48284 29.835L11.5397 30.7245L18.317 32.8768L24.7378 36.2501L30.7304 40.8077L36.2272 46.5183L41.164 53.357L45.349 61.0527L48.6577 69.2733L51.1239 77.9124L52.7748 86.8695L53.6315 96.0486L53.709 105.358L53.0168 114.709Z" stroke="url(#paint3_linear_3650_13435)" stroke-width="1.13106"/>
</g>
<g filter="url(#filter2_f_3650_13435)">
<path d="M21.9408 73.5705C23.843 75.6966 24.1126 79.3575 22.5878 81.8316L19.8674 86.1542C25.4731 95.5137 23.5625 106.081 20.3761 111.559C18.9217 114.096 16.1845 114.534 14.271 112.527C14.1715 112.445 14.0787 112.353 13.9924 112.252C12.2815 110.384 12.0661 106.789 13.4308 104.404C14.3446 102.759 16.8253 96.9249 11.2926 90.8928C5.96136 85.0839 2.43222 88.9943 1.15434 90.9424C0.230362 92.6221 -1.66988 97.7335 3.7096 103.575C13.093 113.792 10.7916 127.184 6.94249 133.713L6.80659 133.932L6.63157 134.167C4.34049 137.18 1.37599 139.108 -1.83337 139.676C-5.04273 140.244 -8.31503 139.436 -11.1779 137.347L-14.3016 142.485C-15.8102 144.956 -18.5752 145.29 -20.4557 143.235C-22.3361 141.181 -22.6413 137.51 -21.1327 135.039L-18.0091 129.9C-23.6894 120.546 -21.5375 110.372 -19.2294 105.823C-17.9132 103.178 -15.2117 102.503 -13.1888 104.329C-13.0863 104.427 -12.9838 104.526 -12.8879 104.634C-11.0937 106.587 -10.6865 109.902 -11.9559 112.438C-12.6602 113.942 -14.6275 119.461 -9.41442 125.132C-4.27495 130.725 -0.709195 127.237 0.180541 126.186C1.21259 124.183 3.53486 118.311 -1.75479 112.545C-11.1382 102.328 -9.23126 89.5739 -5.64427 83.4898C-2.24034 78.0038 5.08026 73.1721 13.0978 78.7214L15.8421 74.3017C17.3405 71.8663 20.0827 71.5456 21.9408 73.5705Z" fill="url(#paint4_linear_3650_13435)"/>
</g>
<path fill-rule="evenodd" clip-rule="evenodd" d="M19.651 74.2448L19.6512 74.2448C20.4702 72.9253 21.6503 72.2349 22.8512 72.195L18.2193 72.3307C17.0184 72.3705 15.8384 73.0609 15.0193 74.3804L15.0192 74.3804L12.2845 78.7851L16.9097 78.6591L19.651 74.2448Z" fill="url(#paint5_linear_3650_13435)"/>
<path fill-rule="evenodd" clip-rule="evenodd" d="M13.4828 112.496L13.4826 112.496C13.3833 112.414 13.2907 112.322 13.2046 112.221C11.4971 110.358 11.2803 106.773 12.6401 104.396C13.5506 102.758 16.0216 96.9421 10.5 90.9253C8.36158 88.5978 6.50749 87.8367 4.97975 87.8788L9.61161 87.7432C11.1393 87.701 12.9934 88.4622 15.1319 90.7897C20.6601 96.7968 18.189 102.612 17.272 104.261C15.9121 106.638 16.1385 110.229 17.8364 112.085L18.1144 112.36L18.1146 112.36C18.9453 113.225 19.9424 113.642 20.9072 113.616L16.2851 113.751C15.3173 113.781 14.3163 113.364 13.4828 112.496Z" fill="url(#paint6_linear_3650_13435)" fill-opacity="0.6"/>
<path fill-rule="evenodd" clip-rule="evenodd" d="M-6.41231 83.5381L-6.4134 83.5381C-4.13769 79.8653 -0.095772 76.4834 4.73674 76.3438L9.35997 76.2085C4.53546 76.3517 0.49983 79.726 -1.77562 83.3929L-1.77483 83.3929C-5.33947 89.4632 -7.23435 102.178 2.12056 112.362C7.39959 118.113 5.08664 123.967 4.05839 125.963L-0.573469 126.099C0.454781 124.102 2.76774 118.249 -2.51129 112.497C-11.8709 102.312 -9.98294 89.6055 -6.41231 83.5381ZM0.169153 128.007L-4.46032 128.143C-2.44187 128.083 -1.07284 126.704 -0.580171 126.108L4.05169 125.973C3.55882 126.568 2.1955 127.939 0.169153 128.007Z" fill="url(#paint7_linear_3650_13435)" fill-opacity="0.6"/>
<path d="M0.401186 139.578L-4.23066 139.713C-6.88482 139.79 -9.53691 138.934 -11.8966 137.219L-7.26479 137.083C-4.89544 138.805 -2.25956 139.664 0.401186 139.578Z" fill="#3971B4"/>
<g filter="url(#filter3_b_3650_13435)">
<path d="M25.7434 73.5256C27.6418 75.6462 27.9128 79.2962 26.3933 81.7619L23.6824 86.0699C29.2786 95.4041 27.3789 105.938 24.2038 111.398C22.7547 113.926 20.0248 114.361 18.1152 112.36C18.0159 112.278 17.9232 112.186 17.8372 112.085C16.1296 110.222 15.9128 106.637 17.2727 104.26C18.1832 102.622 20.6542 96.8062 15.1326 90.7894C9.81205 84.9952 6.29428 88.8917 5.02082 90.8332C4.10017 92.5073 2.20772 97.6021 7.57639 103.429C16.9409 113.62 14.653 126.97 10.8175 133.477L10.6821 133.695L10.5077 133.929C8.22422 136.932 5.26851 138.853 2.06785 139.417C-1.13282 139.982 -4.39703 139.174 -7.25363 137.09L-10.3662 142.211C-11.8695 144.674 -14.6272 145.005 -16.5039 142.955C-18.3805 140.906 -18.687 137.246 -17.1837 134.783L-14.0711 129.662C-19.7417 120.333 -17.6011 110.191 -15.3015 105.658C-13.9902 103.021 -11.2962 102.35 -9.2775 104.171C-9.17521 104.269 -9.07291 104.368 -8.9772 104.476C-7.18663 106.423 -6.77863 109.729 -8.04331 112.256C-8.74496 113.755 -10.704 119.257 -5.50146 124.913C-0.372308 130.492 3.18221 127.016 4.06904 125.969C5.09729 123.973 7.41025 118.12 2.13122 112.368C-7.23331 102.178 -5.33844 89.4631 -1.76417 83.3994C1.62784 77.932 8.92666 73.1191 16.9263 78.6559L19.661 74.2512C21.1542 71.824 23.889 71.5058 25.7434 73.5256Z" fill="url(#paint8_linear_3650_13435)" fill-opacity="0.7"/>
</g>
</g>
<defs>
<filter id="filter0_b_3650_13435" x="-116.598" y="-5.02014" width="155.03" height="226.421" filterUnits="userSpaceOnUse" color-interpolation-filters="sRGB">
<feFlood flood-opacity="0" result="BackgroundImageFix"/>
<feGaussianBlur in="BackgroundImageFix" stdDeviation="16.9659"/>
<feComposite in2="SourceAlpha" operator="in" result="effect1_backgroundBlur_3650_13435"/>
<feBlend mode="normal" in="SourceGraphic" in2="effect1_backgroundBlur_3650_13435" result="shape"/>
</filter>
<filter id="filter1_b_3650_13435" x="-73.7311" y="14.5638" width="142.71" height="189.768" filterUnits="userSpaceOnUse" color-interpolation-filters="sRGB">
<feFlood flood-opacity="0" result="BackgroundImageFix"/>
<feGaussianBlur in="BackgroundImageFix" stdDeviation="7.35188"/>
<feComposite in2="SourceAlpha" operator="in" result="effect1_backgroundBlur_3650_13435"/>
<feBlend mode="normal" in="SourceGraphic" in2="effect1_backgroundBlur_3650_13435" result="shape"/>
</filter>
<filter id="filter2_f_3650_13435" x="-52.0918" y="42.2402" width="105.664" height="132.341" filterUnits="userSpaceOnUse" color-interpolation-filters="sRGB">
<feFlood flood-opacity="0" result="BackgroundImageFix"/>
<feBlend mode="normal" in="SourceGraphic" in2="BackgroundImageFix" result="shape"/>
<feGaussianBlur stdDeviation="15" result="effect1_foregroundBlur_3650_13435"/>
</filter>
<filter id="filter3_b_3650_13435" x="-33.7322" y="56.6042" width="76.6988" height="103.289" filterUnits="userSpaceOnUse" color-interpolation-filters="sRGB">
<feFlood flood-opacity="0" result="BackgroundImageFix"/>
<feGaussianBlur in="BackgroundImageFix" stdDeviation="7.79677"/>
<feComposite in2="SourceAlpha" operator="in" result="effect1_backgroundBlur_3650_13435"/>
<feBlend mode="normal" in="SourceGraphic" in2="effect1_backgroundBlur_3650_13435" result="shape"/>
</filter>
<linearGradient id="paint0_linear_3650_13435" x1="-97.4777" y1="102.826" x2="-26.6259" y2="104.466" gradientUnits="userSpaceOnUse">
<stop stop-color="white" stop-opacity="0.27"/>
<stop offset="0.688828" stop-color="white" stop-opacity="0"/>
</linearGradient>
<linearGradient id="paint1_linear_3650_13435" x1="-17.1422" y1="42.5675" x2="-44.8687" y2="181.128" gradientUnits="userSpaceOnUse">
<stop offset="0.325325" stop-color="#C0DDFF"/>
<stop offset="0.59538" stop-color="#1277C1"/>
<stop offset="0.814274" stop-color="#053174"/>
<stop offset="0.896974" stop-color="#053174"/>
<stop offset="1" stop-color="#0D469B"/>
</linearGradient>
<linearGradient id="paint2_linear_3650_13435" x1="-74.0778" y1="49.0553" x2="73.2396" y2="173.886" gradientUnits="userSpaceOnUse">
<stop offset="0.89375" stop-color="#5A8DEF"/>
</linearGradient>
<linearGradient id="paint3_linear_3650_13435" x1="-82.8329" y1="95.5496" x2="-13.0938" y2="163.882" gradientUnits="userSpaceOnUse">
<stop offset="0.0596223" stop-color="white" stop-opacity="0.45"/>
<stop offset="0.701218" stop-color="white" stop-opacity="0"/>
</linearGradient>
<linearGradient id="paint4_linear_3650_13435" x1="11.5748" y1="71.9774" x2="-41.8662" y2="163.819" gradientUnits="userSpaceOnUse">
<stop offset="0.46041" stop-color="#1C5485"/>
<stop offset="1" stop-color="#94B4F2"/>
</linearGradient>
<linearGradient id="paint5_linear_3650_13435" x1="20.6932" y1="70.7167" x2="14.2455" y2="80.1285" gradientUnits="userSpaceOnUse">
<stop stop-color="#94C9FA"/>
<stop offset="1" stop-color="#599CD8"/>
</linearGradient>
<linearGradient id="paint6_linear_3650_13435" x1="12.0727" y1="91.7723" x2="4.94029" y2="109.131" gradientUnits="userSpaceOnUse">
<stop stop-color="white"/>
<stop offset="0.0001" stop-color="#1277C1"/>
<stop offset="0.0002" stop-color="white"/>
</linearGradient>
<linearGradient id="paint7_linear_3650_13435" x1="5.55678" y1="82.827" x2="-1.50818" y2="127.755" gradientUnits="userSpaceOnUse">
<stop offset="0.0486117" stop-color="#8FC1ED"/>
<stop offset="0.372917" stop-color="#1277C1"/>
<stop offset="0.716667" stop-color="#1277C1"/>
<stop offset="1" stop-color="#0D469B"/>
</linearGradient>
<linearGradient id="paint8_linear_3650_13435" x1="15.4036" y1="71.9315" x2="-37.8631" y2="163.456" gradientUnits="userSpaceOnUse">
<stop offset="0.46041" stop-color="#CAE5FF"/>
<stop offset="1" stop-color="#94B4F2"/>
</linearGradient>
</defs>
</svg>
