<svg width="38" height="38" viewBox="0 0 38 38" fill="none" xmlns="http://www.w3.org/2000/svg">
<circle cx="19" cy="19" r="19" fill="#36EAB6"/>
<path d="M7.90625 21.5338C7.96237 21.2046 8.00694 20.8727 8.07703 20.5464C8.30849 19.4672 8.77276 18.4944 9.45802 17.6129C9.41801 17.5597 9.38364 17.5079 9.34363 17.4611C8.57164 16.5608 8.41724 15.3355 8.94354 14.2797C9.4701 13.2228 10.5512 12.6232 11.7831 12.7046C12.8728 12.7766 13.8727 13.5539 14.236 14.6366C14.3048 14.8412 14.3837 14.9129 14.6012 14.8796C14.8125 14.8471 15.0319 14.8611 15.2475 14.8611C17.5101 14.8603 19.7726 14.8605 22.0352 14.8605C22.1291 14.8605 22.2231 14.8605 22.3413 14.8605V16.3022C22.6009 16.3022 22.8372 16.3022 23.0738 16.3022C23.2416 16.3022 23.4132 16.2799 23.5767 16.3065C24.0512 16.3836 24.3936 16.2029 24.6943 15.842C24.9542 15.53 25.2611 15.2566 25.5565 14.9755C25.6185 14.9164 25.7192 14.8656 25.8022 14.8654C27.9767 14.8595 30.1514 14.8608 32.3259 14.8616C32.364 14.8616 32.4021 14.8697 32.4537 14.8756C32.4577 14.9631 32.4641 15.041 32.4641 15.1189C32.4647 16.8137 32.4601 18.5086 32.4706 20.2035C32.4719 20.4092 32.3976 20.4712 32.2176 20.522C28.9541 21.4452 25.6926 22.3761 22.4293 23.2998C22.2739 23.3438 22.2204 23.4201 22.1887 23.5737C21.5424 26.699 18.8725 29.0319 15.686 29.2639C11.8266 29.5447 8.44839 26.7879 7.96613 22.9642C7.95029 22.8388 7.92666 22.7142 7.90679 22.5893C7.90679 22.2375 7.90679 21.8858 7.90679 21.5338H7.90625ZM20.9085 16.3033C20.8276 16.2979 20.7659 16.2901 20.7041 16.2901C18.8656 16.2896 17.0267 16.2813 15.1882 16.296C14.7519 16.2995 14.3056 16.3347 13.8819 16.433C10.8087 17.147 8.92931 19.9707 9.436 23.0826C9.9478 26.224 13.1421 28.4103 16.2537 27.7484C18.8524 27.1955 20.6641 25.1604 20.9001 22.5101C20.9195 22.2945 20.9976 22.2155 21.1942 22.1599C24.396 21.2548 27.5954 20.3405 30.7969 19.4353C30.9706 19.3862 31.0394 19.3233 31.037 19.1321C31.0257 18.2688 31.0321 17.4056 31.0316 16.542C31.0316 16.4647 31.0246 16.3873 31.0209 16.3084C30.9701 16.3003 30.9392 16.2912 30.9086 16.2912C29.4057 16.2901 27.9028 16.2877 26.3999 16.295C26.311 16.2955 26.2039 16.3557 26.1368 16.4209C25.7407 16.8046 25.3597 17.2042 24.9596 17.5833C24.8731 17.6652 24.7289 17.727 24.6108 17.728C23.4596 17.7388 22.3085 17.7345 21.1574 17.7345H20.9085V16.303V16.3033ZM10.4784 16.5557C11.2069 15.9392 12.0234 15.5018 12.9069 15.1989C12.7476 14.5982 12.2525 14.1833 11.6615 14.132C11.0299 14.0773 10.4607 14.4027 10.2018 14.9666C9.95102 15.5128 10.0528 16.1328 10.4784 16.556V16.5557Z" fill="black"/>
<path d="M19.3877 10.3066C20.0416 10.9608 20.7056 11.6256 21.3487 12.2692C21.0284 12.5899 20.6992 12.9191 20.3834 13.2351C19.7459 12.5963 19.0776 11.9266 18.4219 11.2698C18.7293 10.9634 19.0558 10.638 19.3877 10.3069V10.3066Z" fill="black"/>
<path d="M24.5035 9.0874V11.9259H23.0938V9.0874H24.5035Z" fill="black"/>
<path d="M28.2199 10.2974C28.5379 10.6164 28.8633 10.9429 29.1686 11.2493C28.5099 11.9053 27.8403 12.5725 27.1875 13.2229C26.8948 12.9302 26.564 12.5996 26.2383 12.2742C26.8833 11.6308 27.5554 10.9606 28.2199 10.2976V10.2974Z" fill="black"/>
<path d="M15.1252 25.6749C13.1298 25.6685 11.509 24.0388 11.5235 22.0537C11.5378 20.0604 13.1634 18.4585 15.1622 18.4673C17.1342 18.4759 18.7512 20.1133 18.7402 22.0907C18.7292 24.0718 17.1058 25.6813 15.1252 25.6752V25.6749ZM15.1284 24.2423C16.3198 24.2445 17.298 23.2773 17.3077 22.0875C17.3174 20.8928 16.333 19.9015 15.1356 19.8999C13.9383 19.8983 12.9472 20.8899 12.9558 22.0808C12.9647 23.2735 13.9362 24.2402 15.1284 24.2423Z" fill="black"/>
</svg>
