<svg width="38" height="38" viewBox="0 0 38 38" fill="none" xmlns="http://www.w3.org/2000/svg">
<circle cx="19" cy="19" r="19" fill="#F5F872"/>
<path d="M13.6438 18.4701C15.2232 18.4701 16.8026 18.4701 18.382 18.4701C18.7162 18.4701 19.0507 18.4768 19.3843 18.4619C19.5585 18.4542 19.7294 18.4859 19.9036 18.4734C20.0887 18.4599 20.2755 18.4704 20.4616 18.4704H22.1227C22.3431 18.4704 22.3365 18.4677 22.4126 18.2595C22.585 17.7038 22.9123 17.2116 23.3542 16.8433C23.7962 16.4751 24.3337 16.2467 24.9007 16.1863C25.6031 16.0916 26.3156 16.2563 26.9098 16.651C27.504 17.0456 27.941 17.6441 28.1422 18.3389C28.1477 18.3798 28.1689 18.4167 28.2011 18.4416C28.2333 18.4665 28.2738 18.4773 28.3137 18.4717C28.8175 18.468 29.3213 18.4738 29.8251 18.468C29.953 18.468 30.0022 18.5049 29.9999 18.6411C29.9931 19.0402 29.9931 19.4393 29.9999 19.8384C30.0022 19.9767 29.95 20.0115 29.8241 20.0102C29.3431 20.0048 28.8618 20.0132 28.3808 20.0054C28.322 19.9949 28.2614 20.0087 28.2125 20.0437C28.1635 20.0788 28.1302 20.1322 28.1197 20.1924C27.9233 20.8154 27.5373 21.358 27.018 21.7407C26.4987 22.1235 25.8733 22.3265 25.2332 22.32C24.6044 22.3127 23.9938 22.1034 23.4877 21.7217C22.9817 21.34 22.6058 20.8052 22.4132 20.1931C22.4027 20.1332 22.3696 20.0799 22.3211 20.0447C22.2726 20.0095 22.2125 19.9951 22.1537 20.0048C17.5334 20.0084 12.913 20.0094 8.29264 20.0078C8.24727 20.0054 8.20181 20.0054 8.15645 20.0078C8.04108 20.0203 7.99777 19.9797 8.00009 19.8526C8.00802 19.4352 8.00637 19.0174 8.00009 18.5995C8.00009 18.4951 8.02522 18.4663 8.12901 18.4667C9.96715 18.4705 11.8054 18.4716 13.6438 18.4701ZM26.7753 19.2421C26.7764 18.834 26.6196 18.442 26.3391 18.1517C26.0586 17.8613 25.6773 17.6962 25.2782 17.6922C24.8776 17.6928 24.4934 17.8545 24.2084 18.1423C23.9234 18.4301 23.7605 18.8211 23.755 19.2306C23.754 19.6391 23.9109 20.0314 24.1916 20.322C24.4723 20.6126 24.854 20.7779 25.2534 20.7819C25.4524 20.7838 25.6497 20.7453 25.8341 20.6688C26.0185 20.5923 26.1862 20.4792 26.3277 20.3361C26.4691 20.193 26.5815 20.0228 26.6583 19.8351C26.7352 19.6474 26.7749 19.446 26.7753 19.2425V19.2421Z" fill="#232323"/>
<path d="M25.1914 26.1653C23.6577 26.1653 22.1238 26.1673 20.5901 26.1626C20.5359 26.154 20.4805 26.1675 20.4358 26.2001C20.3912 26.2328 20.3608 26.2819 20.3512 26.3371C20.1991 26.8507 19.914 27.3128 19.5262 27.6746C19.1383 28.0364 18.662 28.2845 18.1475 28.3927C17.6555 28.5176 17.1399 28.5081 16.6526 28.3651C16.1653 28.2222 15.7234 27.9508 15.3711 27.5783C15.017 27.2297 14.7577 26.793 14.6185 26.3111C14.6147 26.2878 14.6064 26.2655 14.5941 26.2454C14.5818 26.2254 14.5657 26.208 14.5468 26.1943C14.528 26.1806 14.5066 26.1708 14.484 26.1656C14.4615 26.1603 14.4381 26.1596 14.4153 26.1636C13.0903 26.1665 11.7653 26.1671 10.4403 26.1653C9.68278 26.1653 8.92489 26.1629 8.16732 26.1673C8.04734 26.1673 8.00206 26.1393 8.00404 26.0052C8.01164 25.5882 8.00867 25.1709 8.00008 24.7539C7.99743 24.631 8.06353 24.6304 8.1455 24.6304H11.3718C12.3736 24.6304 13.3754 24.6283 14.3772 24.6334C14.4338 24.6427 14.4917 24.6293 14.5388 24.596C14.5859 24.5626 14.6185 24.5119 14.6298 24.4544C14.7938 23.902 15.1111 23.41 15.5432 23.038C15.9753 22.666 16.5037 22.4299 17.0644 22.3584C17.4942 22.2865 17.9344 22.3154 18.3517 22.4427C18.7689 22.57 19.1525 22.7925 19.4733 23.0934C19.8945 23.4647 20.2024 23.9517 20.3604 24.4966C20.3978 24.6206 20.4738 24.6317 20.5763 24.6317C21.4385 24.6301 22.3006 24.6301 23.1626 24.6317H29.7242C30.0306 24.6317 29.9989 24.6175 29.9992 24.9059C29.9992 25.2489 29.9992 25.592 29.9992 25.935C29.9992 26.1666 29.9992 26.1666 29.7787 26.1666L25.1914 26.1653ZM17.4759 26.9388C17.877 26.9423 18.2631 26.7831 18.5493 26.4961C18.8356 26.209 18.9986 25.8177 19.0026 25.4079C19.0016 25.0007 18.8444 24.6101 18.5649 24.3198C18.2853 24.0295 17.9056 23.8626 17.507 23.8548C17.108 23.8506 16.7235 24.0072 16.4368 24.2905C16.15 24.5739 15.9841 24.9613 15.975 25.3688C15.9715 25.5729 16.0077 25.7756 16.0814 25.9653C16.1551 26.155 16.265 26.3279 16.4046 26.4739C16.5442 26.6199 16.7108 26.7362 16.8947 26.816C17.0786 26.8958 17.2761 26.9376 17.4759 26.9388Z" fill="#232323"/>
<path d="M23.3547 13.8407H17.4481C17.2531 13.8407 17.0578 13.8471 16.8632 13.8387C16.841 13.8354 16.8184 13.8367 16.7967 13.8424C16.775 13.8481 16.7546 13.8581 16.7367 13.8719C16.7188 13.8857 16.7038 13.9029 16.6924 13.9226C16.6811 13.9424 16.6736 13.9642 16.6706 13.9869C16.4852 14.6078 16.1105 15.152 15.6012 15.54C15.1657 15.8789 14.6465 16.0872 14.1017 16.1417C13.5664 16.2029 13.025 16.1099 12.5387 15.8733C12.1592 15.6976 11.8205 15.4418 11.5449 15.1225C11.2694 14.8033 11.0632 14.428 10.94 14.0213C10.9353 13.9918 10.9248 13.9636 10.9093 13.9383C10.8938 13.913 10.8735 13.8911 10.8496 13.8739C10.8257 13.8566 10.7987 13.8444 10.7701 13.838C10.7416 13.8315 10.712 13.831 10.6833 13.8363C9.83964 13.8427 8.99569 13.8363 8.15174 13.843C8.02353 13.843 8.00568 13.8035 8.007 13.6871C8.01185 13.2562 8.00954 12.8253 8.00007 12.3942C7.99775 12.2896 8.05624 12.3203 8.1035 12.3203C8.961 12.3203 9.81849 12.3166 10.6757 12.3247C10.7361 12.3347 10.798 12.32 10.8479 12.2838C10.8979 12.2476 10.9319 12.1928 10.9427 12.1312C11.1139 11.5638 11.4459 11.061 11.8966 10.6862C12.3474 10.3114 12.8966 10.0814 13.4752 10.0254C14.112 9.93819 14.7588 10.0773 15.3071 10.4194C15.9509 10.7967 16.432 11.4078 16.6547 12.1312C16.6663 12.1935 16.7013 12.2487 16.7523 12.2848C16.8033 12.3209 16.8662 12.3351 16.9273 12.3243C21.1918 12.3203 25.4563 12.3193 29.7207 12.3213C29.7614 12.3237 29.8023 12.3237 29.843 12.3213C29.9626 12.3071 30.0016 12.3595 30 12.4803C29.9947 12.8882 29.9947 13.2961 30 13.7039C30 13.8147 29.9669 13.8437 29.8592 13.8434C28.385 13.8396 26.9108 13.8385 25.4365 13.8403L23.3547 13.8407ZM15.3114 13.0891C15.3094 12.6768 15.1483 12.282 14.8631 11.9904C14.5779 11.6987 14.1916 11.5339 13.7881 11.5316C13.389 11.5371 13.0082 11.7033 12.7284 11.9942C12.4486 12.285 12.2924 12.6769 12.2938 13.0847C12.2928 13.2879 12.3311 13.4892 12.4066 13.6771C12.482 13.8651 12.5932 14.0359 12.7335 14.1797C12.8739 14.3236 13.0408 14.4376 13.2245 14.5152C13.4082 14.5929 13.6052 14.6326 13.804 14.6321C14.2027 14.627 14.5836 14.4627 14.8653 14.1744C15.147 13.886 15.3072 13.4965 15.3114 13.0891Z" fill="#232323"/>
</svg>
