<svg width="38" height="38" viewBox="0 0 38 38" fill="none" xmlns="http://www.w3.org/2000/svg">
<circle cx="19" cy="19" r="19" fill="#C29CFF"/>
<path d="M21.7615 7C21.334 7.04705 20.9048 7.08233 20.4789 7.14338C17.8945 7.51415 15.5786 8.44526 13.7685 10.3943C12.5565 11.6993 11.8458 13.2526 11.5997 15.0068C11.5134 15.6231 11.4864 16.251 11.4796 16.8743C11.463 18.4053 11.474 19.9365 11.4746 21.4675C11.4746 22.1107 11.7271 22.3625 12.3695 22.3633C12.9188 22.3639 13.4678 22.3633 14.0171 22.3633C14.1015 22.3633 14.1859 22.3633 14.284 22.3633V23.969C13.922 23.969 13.5707 23.9682 13.2195 23.969C12.6994 23.9707 12.4204 24.2426 12.4168 24.7627C12.4123 25.4258 12.4156 26.0889 12.4156 26.7814C12.1881 26.7814 11.9786 26.7798 11.7693 26.7817C11.3041 26.7862 11.011 27.0576 11.0065 27.5188C10.9978 28.4325 10.9978 29.3466 11.0065 30.2606C11.0108 30.7224 11.3035 30.9991 11.7679 30.9991C16.7498 31.0005 21.7317 31.0002 26.7138 30.9991C27.1793 30.9991 27.4738 30.7229 27.478 30.2634C27.4864 29.3496 27.4862 28.4356 27.478 27.5216C27.4741 27.0595 27.1824 26.7865 26.718 26.7814C26.515 26.7792 26.3119 26.7812 26.083 26.7812C26.0776 26.6865 26.0695 26.6047 26.0692 26.523C26.0681 25.9371 26.0714 25.3513 26.0675 24.7655C26.0641 24.2435 25.7871 23.971 25.2682 23.9688C25.0105 23.9676 24.7529 23.9688 24.4981 23.9688C24.4393 23.5005 24.3977 23.05 24.324 22.6047C24.1167 21.3521 23.5908 20.2266 22.9188 19.1591C22.5487 18.5711 22.196 17.9718 21.8461 17.3717C21.7494 17.2056 21.6912 17.0174 21.5936 16.7886C21.6988 16.8357 21.7581 16.8589 21.8141 16.8881C22.8407 17.4249 23.8667 17.9628 24.8933 18.4997C25.4063 18.7679 25.7159 18.6918 26.0332 18.2182C26.6247 17.335 27.2153 16.4512 27.8051 15.5666C28.0962 15.13 28.0653 14.8351 27.685 14.468C26.272 13.1025 24.8587 11.7374 23.4403 10.3772C23.3168 10.2588 23.2648 10.1426 23.2676 9.97146C23.2794 9.28425 23.2592 8.5962 23.2848 7.90956C23.3011 7.47466 23.1571 7.16942 22.749 7C22.4193 7 22.09 7 21.7604 7H21.7615ZM26.3257 15.2448C25.953 15.8012 25.5418 16.4154 25.1284 17.0323C25.0001 16.9659 24.8958 16.9124 24.792 16.8581C23.5514 16.2081 22.3125 15.5542 21.069 14.9093C20.5285 14.629 19.9803 14.9628 20.005 15.5677C20.0219 15.9788 20.068 16.393 20.1493 16.7962C20.3214 17.652 20.7734 18.3857 21.2175 19.1239C21.6594 19.8587 22.1055 20.5957 22.479 21.3655C22.8699 22.1712 23.0223 23.0497 23.0513 23.9539H15.7257C15.7201 23.8934 15.7125 23.8475 15.7125 23.8013C15.7117 22.8954 15.7094 21.9895 15.7122 21.0838C15.7176 19.4207 15.6827 17.7559 15.7463 16.0947C15.807 14.5022 16.5462 13.2462 17.9178 12.3918C19.2186 11.5817 20.6716 11.3061 22.1758 11.2308C22.2593 11.2266 22.3642 11.2935 22.4303 11.3571C23.3464 12.2336 24.2641 13.1087 25.1666 13.9987C25.5615 14.3882 25.9241 14.8108 26.3257 15.2448ZM21.8504 9.83032C21.7477 9.83984 21.6557 9.84964 21.5635 9.85692C20.3032 9.95438 19.0817 10.2173 17.9409 10.7718C15.6433 11.8889 14.4019 13.7189 14.3192 16.2725C14.2722 17.7234 14.3034 19.1768 14.2995 20.6291C14.2995 20.7287 14.2995 20.8282 14.2995 20.9424H12.8873C12.8873 20.8394 12.8873 20.7481 12.8873 20.6565C12.8873 19.4619 12.8805 18.2672 12.8904 17.0726C12.8949 16.5425 12.9011 16.009 12.9615 15.4834C13.2043 13.3775 14.1603 11.6632 15.8694 10.3851C17.1897 9.39794 18.6994 8.8628 20.3133 8.59788C20.8187 8.51499 21.3309 8.47271 21.8504 8.41082V9.83032ZM26.0619 29.5756H12.4317V28.2057H26.0619V29.5756ZM24.6494 26.7632H13.8438V25.393H24.6494V26.7632Z" fill="black"/>
</svg>
